<svg width="800" height="400" viewBox="0 0 800 400" fill="none" xmlns="http://www.w3.org/2000/svg">
  <defs>
    <linearGradient id="automationGradient" x1="0%" y1="0%" x2="100%" y2="100%">
      <stop offset="0%" style="stop-color:#0f172a"/>
      <stop offset="100%" style="stop-color:#1e293b"/>
    </linearGradient>
    <filter id="glow" x="-50%" y="-50%" width="200%" height="200%">
      <feGaussianBlur stdDeviation="3"/>
    </filter>
  </defs>
  
  <!-- Background -->
  <rect width="800" height="400" fill="url(#automationGradient)"/>
  
  <!-- Central automation hub -->
  <circle cx="400" cy="200" r="60" fill="#1e293b" stroke="#3b82f6" stroke-width="3"/>
  <circle cx="400" cy="200" r="40" fill="#3b82f6" opacity="0.3"/>
  
  <!-- Central gear/cog -->
  <g transform="translate(400,200)">
    <path d="M-20,-30 L-10,-30 L-10,-20 L10,-20 L10,-30 L20,-30 L30,-20 L30,-10 L20,-10 L20,10 L30,10 L30,20 L20,30 L10,30 L10,20 L-10,20 L-10,30 L-20,30 L-30,20 L-30,10 L-20,10 L-20,-10 L-30,-10 L-30,-20 Z" 
          fill="#f8fafc" opacity="0.9">
      <animateTransform 
        attributeName="transform" 
        type="rotate" 
        values="0;360" 
        dur="10s" 
        repeatCount="indefinite"/>
    </path>
    <circle cx="0" cy="0" r="8" fill="#1e293b"/>
  </g>
  
  <!-- Automation nodes -->
  <!-- Database node -->
  <g transform="translate(150,120)">
    <circle cx="0" cy="0" r="30" fill="#10b981" opacity="0.8"/>
    <rect x="-15" y="-10" width="30" height="20" rx="3" fill="#f8fafc"/>
    <rect x="-12" y="-7" width="24" height="3" fill="#10b981"/>
    <rect x="-12" y="-2" width="24" height="3" fill="#10b981"/>
    <rect x="-12" y="3" width="24" height="3" fill="#10b981"/>
    <text x="0" y="50" text-anchor="middle" font-family="monospace" font-size="12" fill="#10b981">DATABASE</text>
  </g>
  
  <!-- API node -->
  <g transform="translate(650,120)">
    <circle cx="0" cy="0" r="30" fill="#f59e0b" opacity="0.8"/>
    <text x="0" y="5" text-anchor="middle" font-family="monospace" font-size="14" fill="#f8fafc">API</text>
    <text x="0" y="50" text-anchor="middle" font-family="monospace" font-size="12" fill="#f59e0b">SERVICES</text>
  </g>
  
  <!-- Monitoring node -->
  <g transform="translate(150,280)">
    <circle cx="0" cy="0" r="30" fill="#8b5cf6" opacity="0.8"/>
    <rect x="-10" y="-10" width="20" height="20" rx="2" fill="#f8fafc"/>
    <rect x="-8" y="-5" width="16" height="2" fill="#8b5cf6"/>
    <rect x="-8" y="-1" width="12" height="2" fill="#8b5cf6"/>
    <rect x="-8" y="3" width="8" height="2" fill="#8b5cf6"/>
    <text x="0" y="50" text-anchor="middle" font-family="monospace" font-size="12" fill="#8b5cf6">MONITOR</text>
  </g>
  
  <!-- Deployment node -->
  <g transform="translate(650,280)">
    <circle cx="0" cy="0" r="30" fill="#ef4444" opacity="0.8"/>
    <path d="M-10,-10 L10,-10 L15,0 L10,10 L-10,10 Z" fill="#f8fafc"/>
    <circle cx="0" cy="0" r="3" fill="#ef4444"/>
    <text x="0" y="50" text-anchor="middle" font-family="monospace" font-size="12" fill="#ef4444">DEPLOY</text>
  </g>
  
  <!-- Connection lines with data flow animation -->
  <g stroke="#3b82f6" stroke-width="2" fill="none">
    <!-- Central hub connections -->
    <path d="M400,140 L400,200 M400,200 L400,260">
      <animate attributeName="stroke-dasharray" values="0,10;10,0" dur="2s" repeatCount="indefinite"/>
    </path>
    <path d="M340,200 L460,200">
      <animate attributeName="stroke-dasharray" values="0,10;10,0" dur="2s" repeatCount="indefinite"/>
    </path>
    
    <!-- Node connections -->
    <path d="M180,140 Q290,120 340,160"/>
    <path d="M620,140 Q510,120 460,160"/>
    <path d="M180,260 Q290,280 340,240"/>
    <path d="M620,260 Q510,280 460,240"/>
  </g>
  
  <!-- Data flow indicators -->
  <g>
    <!-- Moving data packets -->
    <circle cx="0" cy="0" r="4" fill="#22c55e">
      <animateMotion dur="3s" repeatCount="indefinite">
        <path d="M180,140 Q290,120 340,160 L400,200"/>
      </animateMotion>
    </circle>
    
    <circle cx="0" cy="0" r="4" fill="#3b82f6">
      <animateMotion dur="3s" repeatCount="indefinite" begin="1s">
        <path d="M620,140 Q510,120 460,160 L400,200"/>
      </animateMotion>
    </circle>
    
    <circle cx="0" cy="0" r="4" fill="#f59e0b">
      <animateMotion dur="3s" repeatCount="indefinite" begin="2s">
        <path d="M400,200 L340,240 Q290,280 180,260"/>
      </animateMotion>
    </circle>
  </g>
  
  <!-- Code snippet window -->
  <rect x="480" y="20" width="280" height="120" rx="5" fill="#000000" stroke="#22c55e" stroke-width="1"/>
  <rect x="480" y="20" width="280" height="20" fill="#1f2937"/>
  <text x="490" y="33" font-family="monospace" font-size="10" fill="#f8fafc">automation.py</text>
  
  <!-- Automation script -->
  <g font-family="monospace" font-size="10" fill="#22c55e">
    <text x="490" y="55">#!/usr/bin/env python3</text>
    <text x="490" y="70" fill="#c678dd">import</text>
    <text x="525" y="70" fill="#e06c75">subprocess, time</text>
    <text x="490" y="85" fill="#c678dd">while</text>
    <text x="520" y="85" fill="#d19a66">True</text>
    <text x="545" y="85">:</text>
    <text x="500" y="100">monitor_system()</text>
    <text x="500" y="115">deploy_if_needed()</text>
    <text x="500" y="130">time.sleep(60)</text>
  </g>
  
  <!-- Status indicators -->
  <g transform="translate(50,50)">
    <rect x="0" y="0" width="120" height="80" rx="5" fill="#1f2937" stroke="#374151" stroke-width="1"/>
    <text x="60" y="15" text-anchor="middle" font-family="monospace" font-size="10" fill="#f8fafc">SYSTEM STATUS</text>
    
    <circle cx="20" cy="30" r="4" fill="#10b981"/>
    <text x="30" y="35" font-family="monospace" font-size="9" fill="#f8fafc">Online</text>
    
    <circle cx="20" cy="45" r="4" fill="#10b981"/>
    <text x="30" y="50" font-family="monospace" font-size="9" fill="#f8fafc">Automated</text>
    
    <circle cx="20" cy="60" r="4" fill="#f59e0b"/>
    <text x="30" y="65" font-family="monospace" font-size="9" fill="#f8fafc">Processing</text>
  </g>
  
  <!-- Process flow arrows -->
  <g opacity="0.6">
    <defs>
      <marker id="arrowhead" markerWidth="10" markerHeight="7" refX="10" refY="3.5" orient="auto">
        <polygon points="0 0, 10 3.5, 0 7" fill="#3b82f6"/>
      </marker>
    </defs>
    
    <path d="M200,200 L250,200" stroke="#3b82f6" stroke-width="2" marker-end="url(#arrowhead)"/>
    <path d="M550,200 L600,200" stroke="#3b82f6" stroke-width="2" marker-end="url(#arrowhead)"/>
    <path d="M400,150 L400,120" stroke="#3b82f6" stroke-width="2" marker-end="url(#arrowhead)"/>
    <path d="M400,250 L400,280" stroke="#3b82f6" stroke-width="2" marker-end="url(#arrowhead)"/>
  </g>
  
  <!-- Background tech pattern -->
  <g opacity="0.1">
    <pattern id="techPattern" patternUnits="userSpaceOnUse" width="50" height="50">
      <rect width="50" height="50" fill="none"/>
      <circle cx="25" cy="25" r="2" fill="#3b82f6"/>
      <rect x="20" y="20" width="10" height="10" fill="none" stroke="#3b82f6" stroke-width="0.5"/>
    </pattern>
    <rect width="800" height="400" fill="url(#techPattern)"/>
  </g>
</svg>
